<?xml version="1.0" encoding="UTF-8"?>
<svg width="230px" height="50px" viewBox="0 0 230 50" version="1.1" xmlns="http://www.w3.org/2000/svg" xmlns:xlink="http://www.w3.org/1999/xlink">
    <!-- Generator: Sketch 53.2 (72643) - https://sketchapp.com -->
    <title>Untitled 2</title>
    <desc>Created with Sketch.</desc>
    <g id="Page-1" stroke="none" stroke-width="1" fill="none" fill-rule="evenodd">
        <g id="Logo">
            <rect id="Rectangle-4" x="0" y="0" width="230" height="50"></rect>
            <g id="logo" transform="translate(0.000000, 0.000000)" fill="#00FBFE">
                <path d="M1,18 C1.55229102,18 2,17.55232 2,17 C2,16.44768 1.55229102,16 1,16 C0.447716153,16 0,16.44768 0,17 C0,17.55232 0.447716153,18 1,18 Z" id="Path"></path>
                <path d="M10,7 C10.5523149,7 11,6.552288 11,6 C11,5.447712 10.5523149,5 10,5 C9.44776476,5 9,5.447712 9,6 C9,6.552288 9.44776476,7 10,7 Z" id="Path"></path>
                <path d="M11,21 C11.5523149,21 12,20.55232 12,20 C12,19.44768 11.5523149,19 11,19 C10.4477648,19 10,19.44768 10,20 C10,20.55232 10.4477648,21 11,21 Z" id="Path"></path>
                <path d="M1.99999602,32 C2.55228483,32 3,31.55232 3,31 C3,30.44768 2.55228483,30 1.99999602,30 C1.44771517,30 1,30.44768 1,31 C1,31.55232 1.44771517,32 1.99999602,32 Z" id="Path"></path>
                <path d="M13,36 C13.5523149,36 14,35.55232 14,35 C14,34.44768 13.5523149,34 13,34 C12.4476851,34 12,34.44768 12,35 C12,35.55232 12.4476851,36 13,36 Z" id="Path"></path>
                <path d="M23,40 C23.5522352,40 24,39.55232 24,39 C24,38.44768 23.5522352,38 23,38 C22.4476851,38 22,38.44768 22,39 C22,39.55232 22.4476851,40 23,40 Z" id="Path"></path>
                <path d="M14,50 C14.5523149,50 15,49.55232 15,49 C15,48.44768 14.5523149,48 14,48 C13.4476851,48 13,48.44768 13,49 C13,49.55232 13.4476851,50 14,50 Z" id="Path"></path>
                <path d="M35,44 C35.5523149,44 36,43.55232 36,43 C36,42.44768 35.5523149,42 35,42 C34.4476851,42 34,42.44768 34,43 C34,43.55232 34.4476851,44 35,44 Z" id="Path"></path>
                <path d="M45,34 C45.5522352,34 46,33.55232 46,33 C46,32.44768 45.5522352,32 45,32 C44.4476851,32 44,32.44768 44,33 C44,33.55232 44.4476851,34 45,34 Z" id="Path"></path>
                <path d="M35,30 C35.5523149,30 36,29.55232 36,29 C36,28.44768 35.5523149,28 35,28 C34.4477648,28 34,28.44768 34,29 C34,29.55232 34.4477648,30 35,30 Z" id="Path"></path>
                <path d="M44,20 C44.5522352,20 45,19.55232 45,19 C45,18.44768 44.5522352,18 44,18 C43.4476851,18 43,18.44768 43,19 C43,19.55232 43.4476851,20 44,20 Z" id="Path"></path>
                <path d="M32,2 C32.5523149,2 33,1.552288 33,1 C33,0.4477152 32.5523149,0 32,0 C31.4477648,0 31,0.4477152 31,1 C31,1.552288 31.4477648,2 32,2 Z" id="Path"></path>
                <path d="M32,15 C32.5523149,15 33,14.55232 33,14 C33,13.44768 32.5523149,13 32,13 C31.4477648,13 31,13.44768 31,14 C31,14.55232 31.4477648,15 32,15 Z" id="Path"></path>
                <path d="M22,12 C22.5522352,12 23,11.55232 23,11 C23,10.44768 22.5522352,10 22,10 C21.4476851,10 21,10.44768 21,11 C21,11.55232 21.4476851,12 22,12 Z" id="Path"></path>
                <path d="M21,25 C21.5522352,25 22,24.55232 22,24 C22,23.44768 21.5522352,23 21,23 C20.4476851,23 20,23.44768 20,24 C20,24.55232 20.4476851,25 21,25 Z" id="Path"></path>
                <path d="M25,27 C25.5522352,27 26,26.55232 26,26 C26,25.44768 25.5522352,25 25,25 C24.4476851,25 24,25.44768 24,26 C24,26.55232 24.4476851,27 25,27 Z" id="Path"></path>
                <polygon id="Path" fill-rule="nonzero" points="2.47865707 30.7922069 2.50099435 31 3 30.9627808 2.97766272 30.7549877 1.52134792 17.2077931 1.49901064 17 1 17.0372192 1.02233828 17.2450123"></polygon>
                <polygon id="Path" fill-rule="nonzero" points="2.12962991 30.5685567 2 30.7285121 2.30545758 31 2.43508749 30.8400446 10.8703781 20.4315272 11 20.2715718 10.6945424 20 10.5649205 20.1599554"></polygon>
                <polygon id="Path" fill-rule="nonzero" points="23.5361908 38.8255735 23.6537692 39 24 38.7629892 23.8824216 38.5885628 11.4638926 20.1744265 11.3462308 20 11 20.2370108 11.1176618 20.4114372"></polygon>
                <polygon id="Path" fill-rule="nonzero" points="23.5527759 38.7898868 23.589262 39 24 38.9254657 23.9635971 38.7152671 21.4472241 24.2101132 21.4108211 24 21 24.0746196 21.036486 24.2847329"></polygon>
                <polygon id="Path" fill-rule="nonzero" points="32.7942782 14.4394154 33 14.3866727 32.8877109 14 32.6820741 14.0527427 11.2057218 19.5605846 11 19.6133273 11.1122042 20 11.3179259 19.9472573"></polygon>
                <polygon id="Path" fill-rule="nonzero" points="31.8836773 14.4158972 32 14.2369567 31.6487657 14 31.532443 14.1789405 24.1163227 25.5841886 24 25.7630433 24.3512343 26 24.4674731 25.8211453"></polygon>
                <polygon id="Path" fill-rule="nonzero" points="32.4516533 14.1732965 32.3345911 14 32 14.2425136 32.1170622 14.4158101 44.5483467 32.8266189 44.6654089 33 45 32.7574018 44.8829378 32.5841053"></polygon>
                <polygon id="Path" fill-rule="nonzero" points="23.2025469 38.5537372 23 38.6056055 23.1065729 39 23.3091198 38.9481317 44.7973696 33.4462628 45 33.3943945 44.8934271 33 44.6907967 33.0518683"></polygon>
                <polygon id="Path" fill-rule="nonzero" points="23.8575719 38.4397056 24 38.2820817 23.6817064 38 23.5392783 38.1576239 14.142343 48.5602944 14 48.7179183 14.3182936 49 14.4606366 48.8423761"></polygon>
                <polygon id="Path" fill-rule="nonzero" points="13.3259581 35.2079563 13.3158094 35 13 35.0268384 13.0102118 35.2347114 13.6740419 48.7920437 13.6842537 49 14 48.9731616 13.9898512 48.7652053"></polygon>
                <polygon id="Path" fill-rule="nonzero" points="10.8601674 6.42616881 11 6.27120582 10.6804913 6 10.5406587 6.15495475 1.13981741 16.5738394 1 16.7287695 1.31954675 17 1.45936246 16.84507"></polygon>
                <polygon id="Path" fill-rule="nonzero" points="10.3972433 6.20512342 10.3882608 6 10 6.01896568 10.0089051 6.2240891 10.6027567 19.7949012 10.6117392 20 11 19.9810261 10.9910175 19.7759273"></polygon>
                <polygon id="Path" fill-rule="nonzero" points="13.5421236 48.828783 13.6543756 49 14 48.777565 13.887748 48.6062663 2.45792569 31.1712986 2.34565728 31 2 31.2225167 2.11226841 31.3938153"></polygon>
                <polygon id="Path" fill-rule="nonzero" points="35.7955741 43.4310464 36 43.3785603 35.8865897 43 35.6822482 43.0524862 14.2043414 48.5689536 14 48.6214397 14.1133258 49 14.3177518 48.9475138"></polygon>
                <polygon id="Path" fill-rule="nonzero" points="44.856792 32.4487814 45 32.2905093 44.6878455 32 44.5447219 32.1583581 35.1431236 42.5513045 35 42.7095766 35.3120701 43 35.4552781 42.8417279"></polygon>
                <polygon id="Path" fill-rule="nonzero" points="44.6664512 32.7854761 44.6761474 33 45 32.9743018 44.9903038 32.7598639 44.3336134 18.2145239 44.3239173 18 44 18.0256122 44.0096962 18.2401361"></polygon>
                <polygon id="Path" fill-rule="nonzero" points="31.4767338 1.17066726 31.355321 1 31 1.23339494 31.1214985 1.40406221 43.5232662 18.8293906 43.6447647 19 44 18.7666216 43.8785872 18.5960122"></polygon>
                <polygon id="Path" fill-rule="nonzero" points="31.7955339 1.45885993 32 1.40663279 31.8949493 1 31.6904832 1.05223554 10.2044661 6.54114007 10 6.59337561 10.1050507 7 10.3095168 6.94777286"></polygon>
                <polygon id="Path" fill-rule="nonzero" points="32.51255 1.21053398 32.50515 1 32.00345 1.01241012 32.01085 1.2229441 32.48735 14.7894576 32.49475 15 32.99655 14.9875309 32.98915 14.7769885"></polygon>
                <polygon id="Path" fill-rule="nonzero" points="31.8531446 1.41332402 32 1.26552041 31.672925 1 31.5260697 1.14780361 22.1468554 10.5866839 22 10.7344955 22.327075 11 22.4739303 10.8521884"></polygon>
                <path d="M38.2477899,24.0173873 L34.141377,28.5737364 L34,28.7305981 L34.329073,29 L34.47045,28.8431383 L38.5044461,24.3670806 L38.2477899,24.0173873 Z M39.0880149,23.7196229 L38.8313587,23.3699296 L43.5296364,18.1568617 L43.6710134,18 L44,18.2694019 L43.8587095,18.4262636 L39.0880149,23.7196229 Z" id="Shape"></path>
                <path d="M34.5256241,43 L34.5176815,42.7877012 L34.2635212,36.0261657 L34.7342095,35.9153863 L34.9919629,42.773429 L35,42.9857278 L34.5256241,43 Z M34.7014939,35.0446127 L34.4823185,29.2122139 L34.4742814,29 L34,29.0142722 L34.0079425,29.2264861 L34.2308056,35.1554771 L34.7014939,35.0446127 Z" id="Shape"></path>
                <path d="M35.6229569,43 L35.513518,42.816682 L31.7296243,36.4808955 L32.1669457,36.369108 L35.8905611,42.6039551 L36,42.7871884 L35.6229569,43 Z M31.712861,35.6088001 L25.486482,25.183318 L25.3770431,25 L25,25.2128116 L25.1094389,25.3960449 L31.2755397,35.7206724 L31.712861,35.6088001 Z" id="Shape"></path>
                <path d="M14.2562459,13.2186548 L11.4121513,13.9499406 L11.432227,14.3472387 L14.4825622,13.5629488 L14.2562459,13.2186548 Z M15.3279374,13.3455856 L15.1016211,13.0012915 L22.6816558,11.0523842 L22.8854501,11 L23,11.3729659 L22.7962057,11.4254275 L15.3279374,13.3455856 Z M1.20381117,16.57465 L10.5752956,14.1650566 L10.5953714,14.5623547 L1.31834425,16.9476158 L1.11453307,17 L1,16.6270341 L1.20381117,16.57465 Z" id="Shape"></path>
                <path d="M10.3591094,6 L10.4670426,6.18049042 L17.5615818,18.0366463 L17.1415356,18.1518171 L10.1080166,6.39763836 L10,6.21715636 L10.3591094,6 Z M17.5903806,18.9019859 L20.5329574,23.8195349 L20.6409741,24 L21,23.7828858 L20.8919834,23.6023364 L18.0104268,18.7868151 L17.5903806,18.9019859 Z" id="Shape"></path>
                <path d="M22.3536676,11 L22.4753772,11.170989 L25.8309001,15.8845593 L25.3921299,16.0002675 L22.1217096,11.4062235 L22,11.2353174 L22.3536676,11 Z M25.9077918,16.7246468 L28.1336312,19.8513391 L28.3891956,19.4783174 L26.346562,16.6089387 L25.9077918,16.7246468 Z M29.4005908,21.6311193 L28.6584448,20.5885841 L28.9140092,20.2155624 L29.8499668,21.5303519 L29.4005908,21.6311193 Z M29.9236083,22.3658741 L34.5246228,28.829094 L34.6463324,29 L35,28.7647656 L34.8782904,28.5937765 L30.3730698,22.2651068 L29.9236083,22.3658741 Z" id="Shape"></path>
                <path d="M25.9850511,22.1852264 L20.2069973,23.5347086 L20,23.5830694 L20.0960454,24 L20.3031274,23.9516391 L25.6434717,22.7042712 L25.9850511,22.1852264 Z M26.8485281,22.4228366 L27.1901075,21.9037062 L43.6968726,18.0484465 L43.9039546,18 L44,18.4169306 L43.792918,18.4652914 L26.8485281,22.4228366 Z" id="Shape"></path>
                <path d="M24.5594978,25.794146 L24.5952784,26 L25,25.9271735 L24.9642194,25.7213195 L24.5837336,23.533013 L24.182369,23.6252376 L24.5594978,25.794146 Z M24.039083,22.8009855 L24.4404476,22.7087609 L23.5,17.2998679 L23.1019105,17.4104036 L24.039083,22.8009855 Z M22.4405022,11.2057704 L23.3563046,16.4731074 L22.9581332,16.5836432 L22.0357806,11.2785969 L22,11.0727429 L22.4047216,11 L22.4405022,11.2057704 Z" id="Shape"></path>
                <path d="M21.8429488,26.2037837 L24.7941804,25.4870366 L25,25.4370059 L24.9057572,25 L24.6999375,25.0500306 L21.7690692,25.7618464 L21.8429488,26.2037837 Z M20.9445284,25.9620586 L21.0184922,26.4039959 L16.6689325,27.4603775 L16.4141402,27.0623739 L20.9445284,25.9620586 Z M15.7850692,27.675025 L15.530277,27.2770215 L2.20586171,30.5130531 L2,30.5629941 L2.09420919,31 L2.30007932,30.950059 L15.7850692,27.675025 Z" id="Shape"></path>
                <path d="M28.8194297,31.2853677 L34.7955345,29.4910368 L35,29.4296348 L34.8831504,29 L34.6786849,29.0614019 L28.5966614,30.8874617 L28.8194297,31.2853677 Z M27.7517688,31.1412028 L27.9745371,31.5390194 L22.9268737,33.0545838 L22.8521374,32.6122574 L27.7517688,31.1412028 Z M22.1046053,33.3014428 L22.0298691,32.8591164 L20.1876456,33.4122702 L20.4393086,33.8015066 L22.1046053,33.3014428 Z M19.3263992,33.6708376 L19.5780621,34.0600741 L13.3213151,35.9385981 L13.1168496,36 L13,35.5703652 L13.2044655,35.5089632 L19.3263992,33.6708376 Z" id="Shape"></path>
                <path d="M13.5261978,34.8310511 L13.6463947,35 L14,34.7703504 L13.8798032,34.6014016 L10.4151355,29.7329288 L9.96952978,29.8333341 L13.5261978,34.8310511 Z M9.45475336,29.1099911 L9.90035909,29.0095858 L7.58731521,25.7593622 L7.30022279,26.0824729 L9.45475336,29.1099911 Z M1.4738192,17.1688672 L7.08844294,25.0584041 L6.801342,25.3815147 L1.12020281,17.3985168 L1,17.2296496 L1.35361383,17 L1.4738192,17.1688672 Z" id="Shape"></path>
                <path d="M18.7093594,27.4599983 L17.5176049,29.1375758 L17.2592292,28.7689624 L18.0923136,27.5962449 L18.7093594,27.4599983 Z M19.4273825,26.4492814 L20.8784516,24.4066628 L21,24.2356069 L20.6471341,24 L20.5256711,24.1710559 L18.8102514,26.585611 L19.4273825,26.4492814 Z M16.9960736,29.8717288 L16.7376979,29.5030323 L13.1215484,34.5933372 L13,34.7643931 L13.3528659,35 L13.4744142,34.8289441 L16.9960736,29.8717288 Z" id="Shape"></path>
            </g>
            <g id="Indicator.ru" transform="translate(59.000000, 11.000000)" fill="#DFFFFF" fill-rule="nonzero">
                <polygon id="Path" points="0.728027 19.096 6.39203 19.096 6.39203 4.504 0.728027 4.504 0.728027 0.6 16.472 0.6 16.472 4.504 10.776 4.504 10.776 19.096 16.472 19.096 16.472 23 0.728027 23"></polygon>
                <path d="M18.5715,7 L24.1715,7 L24.6515,9.112 L24.7795,9.112 C25.2702,8.42933 25.9742,7.832 26.8915,7.32 C27.8089,6.808 28.9075,6.552 30.1875,6.552 C30.9769,6.552 31.7129,6.65867 32.3955,6.872 C33.0995,7.08533 33.6969,7.43733 34.1875,7.928 C34.6782,8.41867 35.0622,9.09067 35.3395,9.944 C35.6382,10.776 35.7875,11.8107 35.7875,13.048 L35.7875,23 L31.6275,23 L31.6275,13.912 C31.6275,12.6107 31.3289,11.672 30.7315,11.096 C30.1555,10.52 29.4195,10.232 28.5235,10.232 C27.7342,10.232 27.0089,10.4667 26.3475,10.936 C25.7075,11.384 25.2702,11.9493 25.0355,12.632 L25.0355,23 L20.8755,23 L20.8755,10.52 L18.5715,10.52 L18.5715,7 Z" id="Path"></path>
                <path d="M47.167,0.6 L53.855,0.6 L53.855,14.424 C53.855,16.024 53.9404,17.6027 54.111,19.16 C54.111,19.2667 54.1217,19.3733 54.143,19.48 L56.191,19.48 L56.191,23 L51.039,23 L50.623,20.952 L50.495,20.952 C50.2817,21.336 49.9937,21.6773 49.631,21.976 C49.2684,22.2747 48.863,22.5413 48.415,22.776 C47.967,22.9893 47.4764,23.1493 46.943,23.256 C46.4097,23.384 45.8764,23.448 45.343,23.448 C44.3404,23.448 43.391,23.288 42.495,22.968 C41.6204,22.648 40.8524,22.1573 40.191,21.496 C39.5297,20.8133 39.007,19.96 38.623,18.936 C38.239,17.8907 38.047,16.664 38.047,15.256 C38.047,13.8907 38.2497,12.6747 38.655,11.608 C39.0817,10.5413 39.6577,9.64533 40.383,8.92 C41.1297,8.17333 42.0044,7.608 43.007,7.224 C44.0097,6.81867 45.1084,6.616 46.303,6.616 C46.9644,6.616 47.583,6.65867 48.159,6.744 C48.7564,6.808 49.2684,6.92534 49.695,7.096 L49.695,4.12 L47.167,4.12 L47.167,0.6 Z M46.303,19.928 C47.1137,19.928 47.8284,19.736 48.447,19.352 C49.087,18.9467 49.503,18.3707 49.695,17.624 L49.695,10.84 C49.3964,10.6053 48.9804,10.4347 48.447,10.328 C47.935,10.2 47.391,10.136 46.815,10.136 C46.239,10.136 45.6737,10.232 45.119,10.424 C44.5857,10.616 44.1057,10.9253 43.679,11.352 C43.2737,11.7573 42.943,12.2907 42.687,12.952 C42.4524,13.6133 42.335,14.424 42.335,15.384 C42.335,16.7493 42.6764,17.848 43.359,18.68 C44.0417,19.512 45.023,19.928 46.303,19.928 Z" id="Shape"></path>
                <path d="M58.4505,19.48 L64.0825,19.48 L64.0825,10.52 L58.4505,10.52 L58.4505,7 L68.2425,7 L68.2425,19.48 L74.1625,19.48 L74.1625,23 L58.4505,23 L58.4505,19.48 Z M63.3145,2.648 C63.3145,1.98667 63.5599,1.42133 64.0505,0.952002 C64.5412,0.482668 65.2239,0.248001 66.0985,0.248001 C66.9945,0.248001 67.7092,0.482668 68.2425,0.952002 C68.7759,1.42133 69.0425,1.98667 69.0425,2.648 C69.0425,3.33067 68.7759,3.896 68.2425,4.344 C67.7092,4.77067 66.9945,4.984 66.0985,4.984 C65.2239,4.984 64.5412,4.77067 64.0505,4.344 C63.5599,3.896 63.3145,3.33067 63.3145,2.648 Z" id="Shape"></path>
                <path d="M93.222,21.464 C92.3474,22.1253 91.3234,22.6267 90.15,22.968 C88.9767,23.288 87.75,23.448 86.47,23.448 C85.0834,23.448 83.846,23.2453 82.758,22.84 C81.6914,22.4347 80.7847,21.8693 80.038,21.144 C79.3127,20.3973 78.758,19.5013 78.374,18.456 C77.99,17.4107 77.798,16.2587 77.798,15 C77.798,13.656 78.022,12.4613 78.47,11.416 C78.918,10.3707 79.5367,9.48533 80.326,8.76 C81.1367,8.03467 82.086,7.49067 83.174,7.128 C84.262,6.744 85.446,6.552 86.726,6.552 C87.9207,6.552 89.0407,6.69067 90.086,6.968 C91.1314,7.24533 91.9314,7.512 92.486,7.768 L92.486,13.4 L88.966,13.4 L88.966,10.456 C88.3047,10.3067 87.6434,10.232 86.982,10.232 C86.3847,10.232 85.7874,10.328 85.19,10.52 C84.614,10.6907 84.0914,10.9787 83.622,11.384 C83.174,11.768 82.8007,12.2587 82.502,12.856 C82.2247,13.4533 82.086,14.168 82.086,15 C82.086,15.6827 82.2034,16.312 82.438,16.888 C82.6727,17.464 83.0034,17.9653 83.43,18.392 C83.8567,18.8187 84.3794,19.16 84.998,19.416 C85.638,19.6507 86.342,19.768 87.11,19.768 C88.326,19.768 89.318,19.5973 90.086,19.256 C90.8754,18.9147 91.462,18.616 91.846,18.36 L93.222,21.464 Z" id="Path"></path>
                <path d="M97.8175,8.088 C98.6709,7.704 99.6522,7.37333 100.762,7.096 C101.892,6.81867 103.226,6.68 104.762,6.68 C105.871,6.68 106.81,6.81867 107.578,7.096 C108.367,7.352 108.996,7.72533 109.466,8.216 C109.956,8.70667 110.308,9.29333 110.522,9.976 C110.735,10.6587 110.842,11.4267 110.842,12.28 C110.842,13.368 110.799,14.296 110.714,15.064 C110.65,15.832 110.618,16.5147 110.618,17.112 C110.618,17.56 110.639,18.0613 110.682,18.616 C110.724,18.9147 110.756,19.2027 110.778,19.48 L112.858,19.48 L112.858,23 L107.546,23 L107.13,20.824 L106.97,20.824 C106.543,21.4853 105.935,22.0613 105.146,22.552 C104.356,23.0213 103.29,23.256 101.946,23.256 C100.346,23.256 99.0762,22.8293 98.1375,21.976 C97.1989,21.1227 96.7295,19.992 96.7295,18.584 C96.7295,17.688 96.8895,16.92 97.2095,16.28 C97.5509,15.6187 98.0309,15.0853 98.6495,14.68 C99.2895,14.2533 100.047,13.944 100.922,13.752 C101.818,13.5387 102.81,13.432 103.898,13.432 C104.282,13.432 104.687,13.4533 105.114,13.496 C105.54,13.5387 106.063,13.5813 106.682,13.624 C106.724,13.4107 106.746,13.1973 106.746,12.984 L106.746,12.376 C106.746,11.5653 106.511,10.9893 106.042,10.648 C105.572,10.2853 104.879,10.104 103.962,10.104 C102.874,10.104 101.892,10.2427 101.018,10.52 C100.143,10.7973 99.4069,11.0747 98.8095,11.352 L97.8175,8.088 Z M103.29,19.832 C104.314,19.832 105.082,19.6507 105.594,19.288 C106.106,18.904 106.479,18.4987 106.714,18.072 L106.714,16.152 C106.5,16.1093 106.18,16.0667 105.754,16.024 C105.327,15.96 104.868,15.928 104.378,15.928 C103.972,15.928 103.567,15.9707 103.162,16.056 C102.756,16.12 102.394,16.2373 102.074,16.408 C101.754,16.5573 101.498,16.76 101.306,17.016 C101.114,17.272 101.018,17.5813 101.018,17.944 C101.018,18.5413 101.188,19.0107 101.53,19.352 C101.892,19.672 102.479,19.832 103.29,19.832 Z" id="Shape"></path>
                <path d="M117.837,10.52 L114.669,10.52 L114.669,7 L117.837,7 L117.837,3.352 L121.997,2.168 L121.997,7 L130.381,7 L130.381,10.52 L121.997,10.52 L121.997,15.096 C121.997,16.7387 122.306,17.9333 122.925,18.68 C123.544,19.4053 124.408,19.768 125.517,19.768 C126.093,19.768 126.616,19.704 127.085,19.576 C127.554,19.4267 127.97,19.2453 128.333,19.032 C128.717,18.8187 129.058,18.584 129.357,18.328 C129.677,18.072 129.965,17.8373 130.221,17.624 L132.141,20.504 C131.778,20.9307 131.32,21.3253 130.765,21.688 C130.232,22.0293 129.645,22.3387 129.005,22.616 C128.386,22.872 127.736,23.0747 127.053,23.224 C126.37,23.3733 125.698,23.448 125.037,23.448 C122.648,23.448 120.845,22.7867 119.629,21.464 C118.434,20.12 117.837,17.9973 117.837,15.096 L117.837,10.52 Z" id="Path"></path>
                <path d="M134.433,15 C134.433,13.656 134.635,12.4613 135.041,11.416 C135.446,10.3707 136.022,9.48533 136.769,8.76 C137.515,8.03467 138.401,7.49067 139.425,7.128 C140.47,6.744 141.633,6.552 142.913,6.552 C144.257,6.552 145.451,6.75467 146.497,7.16 C147.563,7.56533 148.459,8.14134 149.185,8.888 C149.91,9.61333 150.454,10.4987 150.817,11.544 C151.201,12.5893 151.393,13.7413 151.393,15 C151.393,16.344 151.19,17.5387 150.785,18.584 C150.379,19.6293 149.803,20.5147 149.057,21.24 C148.31,21.9653 147.414,22.52 146.369,22.904 C145.345,23.2667 144.193,23.448 142.913,23.448 C141.569,23.448 140.363,23.2453 139.297,22.84 C138.251,22.4347 137.366,21.8693 136.641,21.144 C135.915,20.3973 135.361,19.5013 134.977,18.456 C134.614,17.4107 134.433,16.2587 134.433,15 Z M138.721,15 C138.721,15.704 138.817,16.3547 139.009,16.952 C139.201,17.5493 139.478,18.072 139.841,18.52 C140.203,18.968 140.641,19.32 141.153,19.576 C141.665,19.8107 142.251,19.928 142.913,19.928 C144.15,19.928 145.153,19.5333 145.921,18.744 C146.71,17.9547 147.105,16.7067 147.105,15 C147.105,13.528 146.742,12.344 146.017,11.448 C145.291,10.5307 144.257,10.072 142.913,10.072 C142.315,10.072 141.761,10.168 141.249,10.36 C140.737,10.5307 140.289,10.8187 139.905,11.224 C139.542,11.6293 139.254,12.1413 139.041,12.76 C138.827,13.3787 138.721,14.1253 138.721,15 Z" id="Shape"></path>
                <path d="M153.748,19.48 L157.716,19.48 L157.716,10.52 L153.748,10.52 L153.748,7 L160.948,7 L161.428,9.112 L161.556,9.112 C162.153,8.408 162.836,7.82133 163.604,7.352 C164.372,6.88267 165.268,6.648 166.292,6.648 C167.572,6.648 168.575,7.11733 169.3,8.056 C170.047,8.99467 170.42,10.5627 170.42,12.76 L166.676,12.76 C166.676,11.992 166.559,11.4373 166.324,11.096 C166.111,10.7333 165.759,10.552 165.268,10.552 C164.415,10.552 163.721,10.7653 163.188,11.192 C162.676,11.6187 162.239,12.1093 161.876,12.664 L161.876,19.48 L168.82,19.48 L168.82,23 L153.748,23 L153.748,19.48 Z" id="Path"></path>
            </g>
        </g>
    </g>
</svg>