<svg width="230" height="50" xmlns="http://www.w3.org/2000/svg"><g fill="none" fill-rule="evenodd"><path d="M0 0h230v50H0z"/><g fill="#00FBFE"><path d="M1 18a1 1 0 1 0 0-2 1 1 0 0 0 0 2Zm9-11a1 1 0 1 0 0-2 1 1 0 0 0 0 2Zm1 14a1 1 0 1 0 0-2 1 1 0 0 0 0 2ZM2 32a1 1 0 1 0 0-2 1 1 0 0 0 0 2Zm11 4a1 1 0 1 0 0-2 1 1 0 0 0 0 2Zm10 4a1 1 0 1 0 0-2 1 1 0 0 0 0 2Zm-9 10a1 1 0 1 0 0-2 1 1 0 0 0 0 2Zm21-6a1 1 0 1 0 0-2 1 1 0 0 0 0 2Zm10-10a1 1 0 1 0 0-2 1 1 0 0 0 0 2Zm-10-4a1 1 0 1 0 0-2 1 1 0 0 0 0 2Zm9-10a1 1 0 1 0 0-2 1 1 0 0 0 0 2ZM32 2a1 1 0 1 0 0-2 1 1 0 0 0 0 2Zm0 13a1 1 0 1 0 0-2 1 1 0 0 0 0 2Zm-10-3a1 1 0 1 0 0-2 1 1 0 0 0 0 2Zm-1 13a1 1 0 1 0 0-2 1 1 0 0 0 0 2Zm4 2a1 1 0 1 0 0-2 1 1 0 0 0 0 2Z"/><path fill-rule="nonzero" d="M2.479 30.792 2.5 31l.5-.037-.022-.208L1.52 17.208 1.5 17l-.5.037.022.208z"/><path fill-rule="nonzero" d="m2.13 30.569-.13.16.305.271.13-.16 8.435-10.408.13-.16-.305-.272-.13.16zm21.406 8.257.118.174.346-.237-.118-.174-12.418-18.415-.118-.174-.346.237.118.174z"/><path fill-rule="nonzero" d="m23.553 38.79.036.21.411-.075-.036-.21-2.517-14.505-.036-.21-.411.075.036.21zm9.241-24.35.206-.053-.112-.387-.206.053-21.476 5.508-.206.052.112.387.206-.053z"/><path fill-rule="nonzero" d="m31.884 14.416.116-.179-.351-.237-.117.179-7.416 11.405-.116.179.351.237.116-.179zm.568-.243L32.335 14l-.335.243.117.173 12.431 18.41.117.174.335-.243-.117-.173zm-9.249 24.381-.203.052.107.394.202-.052 21.488-5.502.203-.052-.107-.394-.202.052z"/><path fill-rule="nonzero" d="m23.858 38.44.142-.158-.318-.282-.143.158-9.397 10.402-.142.158.318.282.143-.158zm-10.532-3.232-.01-.208-.316.027.01.208.664 13.557.01.208.316-.027-.01-.208zM10.86 6.426l.14-.155L10.68 6l-.14.155-9.4 10.419-.14.155.32.271.14-.155z"/><path fill-rule="nonzero" d="M10.397 6.205 10.388 6 10 6.019l.009.205.594 13.57.009.206.388-.019-.009-.205zm3.145 42.624.112.171.346-.222-.112-.172-11.43-17.435L2.346 31 2 31.223l.112.17zm22.254-5.398.204-.052-.113-.379-.205.052-21.478 5.517-.204.052.113.379.205-.052zm9.061-10.982L45 32.29l-.312-.29-.143.158-9.402 10.393-.143.159.312.29.143-.158z"/><path fill-rule="nonzero" d="m44.666 32.785.01.215.324-.026-.01-.214-.656-14.545-.01-.215-.324.026.01.214zM31.477 1.17 31.355 1 31 1.233l.121.171L43.523 18.83l.122.171.355-.233-.121-.171z"/><path fill-rule="nonzero" d="M31.796 1.459 32 1.407 31.895 1l-.205.052-21.486 5.49-.204.051.105.407.205-.052zm.717-.249L32.505 1l-.502.012.008.21.476 13.567.008.211.502-.012-.008-.211z"/><path fill-rule="nonzero" d="M31.853 1.413 32 1.266 31.673 1l-.147.148-9.38 9.439-.146.147.327.266.147-.148z"/><path d="m38.248 24.017-4.107 4.557-.141.157.33.269.14-.157 4.034-4.476-.256-.35Zm.84-.297-.257-.35 4.699-5.213.141-.157.329.27-.141.156-4.771 5.294ZM34.526 43l-.008-.212-.254-6.762.47-.11.258 6.857.008.213-.474.014Zm.175-7.955-.219-5.833-.008-.212-.474.014.008.212.223 5.93.47-.111Z"/><path d="m35.623 43-.11-.183-3.783-6.336.437-.112 3.724 6.235.109.183-.377.213Zm-3.91-7.391-6.227-10.426-.109-.183-.377.213.11.183 6.166 10.325.437-.112Zm-17.457-22.39-2.844.73.02.398 3.05-.784-.226-.344Zm1.072.127L15.102 13l7.58-1.949.203-.052.115.373-.204.052-7.468 1.92ZM1.204 16.575l9.371-2.41.02.397-9.277 2.386-.203.052L1 16.627l.204-.052Z"/><path d="m10.36 6 .107.18 7.095 11.857-.42.115-7.034-11.754-.108-.18.36-.218Zm7.23 12.902 2.943 4.918.108.18.359-.217-.108-.18-2.882-4.816-.42.115ZM22.354 11l.121.171 3.356 4.714-.439.115-3.27-4.594-.122-.17.354-.236Zm3.554 5.725 2.226 3.126.255-.373-2.042-2.87-.44.117ZM29.4 21.63l-.743-1.042.256-.373.936 1.314-.45.101Zm.523.735 4.6 6.463.122.171.354-.235-.122-.171-4.505-6.329-.45.1Z"/><path d="m25.985 22.185-5.778 1.35-.207.048.096.417.207-.048 5.34-1.248.342-.519Zm.864.238.341-.52 16.507-3.855.207-.048.096.417-.207.048-16.944 3.958Z"/><path d="m24.56 25.794.035.206.405-.073-.036-.206-.38-2.188-.402.092.377 2.17Zm-.52-2.993.4-.092-.94-5.41-.398.111.937 5.391Zm-1.6-11.595.916 5.267-.398.11-.922-5.304-.036-.206.405-.073.036.206Z"/><path d="m21.843 26.204 2.951-.717.206-.05-.094-.437-.206.05-2.93.712.073.442Zm-.898-.242.073.442-4.35 1.056-.254-.398 4.53-1.1Zm-5.16 1.713-.255-.398-13.324 3.236-.206.05.094.437.206-.05 13.485-3.275Zm13.035 3.61 5.976-1.794.204-.061-.117-.43-.204.061-6.082 1.826.222.398Zm-1.068-.144.223.398-5.048 1.516-.075-.443 4.9-1.47Zm-5.647 2.16-.075-.442-1.842.553.251.39 1.666-.5Zm-2.779.37.252.39-6.257 1.878-.204.061-.117-.43.204-.061 6.122-1.838Z"/><path d="m13.526 34.831.12.169.354-.23-.12-.169-3.465-4.868-.445.1 3.556 4.998ZM9.455 29.11l.445-.1-2.313-3.25-.287.322 2.155 3.028ZM1.474 17.169l5.614 7.89-.287.323-5.68-7.983-.121-.17.354-.229.12.169Z"/><path d="m18.71 27.46-1.192 1.678-.259-.369.833-1.173.617-.136Zm.717-1.01 1.451-2.043.122-.171-.353-.236-.121.171-1.716 2.415.617-.137Zm-2.43 3.422-.26-.369-3.615 5.09-.122.171.353.236.121-.171 3.522-4.957Z"/></g><path d="M59.728 30.096h5.664V15.504h-5.664V11.6h15.744v3.904h-5.696v14.592h5.696V34H59.728zM77.572 18h5.6l.48 2.112h.127c.491-.683 1.195-1.28 2.113-1.792.917-.512 2.016-.768 3.296-.768.789 0 1.525.107 2.207.32a4.217 4.217 0 0 1 1.793 1.056c.49.49.874 1.163 1.151 2.016.3.832.448 1.867.448 3.104V34h-4.16v-9.088c0-1.301-.298-2.24-.895-2.816-.576-.576-1.313-.864-2.209-.864a3.68 3.68 0 0 0-2.175.704c-.64.448-1.078 1.013-1.313 1.696V34h-4.16V21.52h-2.303V18Zm28.595-6.4h6.688v13.824c0 1.6.085 3.179.256 4.736 0 .107.01.213.032.32h2.048V34h-5.152l-.416-2.048h-.128a3.567 3.567 0 0 1-.864 1.024 7.05 7.05 0 0 1-1.216.8 6.272 6.272 0 0 1-1.472.48 6.834 6.834 0 0 1-1.6.192 8.404 8.404 0 0 1-2.848-.48 6.268 6.268 0 0 1-2.304-1.472c-.661-.683-1.184-1.536-1.568-2.56-.384-1.045-.576-2.272-.576-3.68 0-1.365.203-2.581.608-3.648.427-1.067 1.003-1.963 1.728-2.688a7.42 7.42 0 0 1 2.624-1.696c1.003-.405 2.101-.608 3.296-.608.661 0 1.28.043 1.856.128.597.064 1.11.181 1.536.352V15.12h-2.528V11.6Zm-.864 19.328c.81 0 1.525-.192 2.144-.576a2.795 2.795 0 0 0 1.248-1.728V21.84c-.299-.235-.715-.405-1.248-.512a6.71 6.71 0 0 0-1.632-.192c-.576 0-1.141.096-1.696.288a3.883 3.883 0 0 0-1.44.928c-.405.405-.736.939-.992 1.6-.235.661-.352 1.472-.352 2.432 0 1.365.341 2.464 1.024 3.296.683.832 1.664 1.248 2.944 1.248Zm12.147-.448h5.632v-8.96h-5.631V18h9.792v12.48h5.92V34H117.45v-3.52Zm4.865-16.832c0-.661.245-1.227.736-1.696.49-.47 1.173-.704 2.047-.704.897 0 1.611.235 2.145.704.533.47.8 1.035.8 1.696 0 .683-.267 1.248-.8 1.696-.534.427-1.248.64-2.144.64-.875 0-1.558-.213-2.049-.64-.49-.448-.735-1.013-.735-1.696Zm29.907 18.816c-.875.661-1.899 1.163-3.072 1.504-1.173.32-2.4.48-3.68.48-1.387 0-2.624-.203-3.712-.608-1.067-.405-1.973-.97-2.72-1.696a7.538 7.538 0 0 1-1.664-2.688c-.384-1.045-.576-2.197-.576-3.456 0-1.344.224-2.539.672-3.584a7.643 7.643 0 0 1 1.856-2.656 8.02 8.02 0 0 1 2.848-1.632c1.088-.384 2.272-.576 3.552-.576 1.195 0 2.315.139 3.36.416 1.045.277 1.845.544 2.4.8V24.4h-3.52v-2.944a8.984 8.984 0 0 0-1.984-.224c-.597 0-1.195.096-1.792.288a4.206 4.206 0 0 0-1.568.864 4.64 4.64 0 0 0-1.12 1.472c-.277.597-.416 1.312-.416 2.144 0 .683.117 1.312.352 1.888a4.51 4.51 0 0 0 .992 1.504c.427.427.95.768 1.568 1.024.64.235 1.344.352 2.112.352 1.216 0 2.208-.17 2.976-.512.79-.341 1.376-.64 1.76-.896l1.376 3.104Zm4.595-13.376c.854-.384 1.835-.715 2.945-.992 1.13-.277 2.464-.416 4-.416 1.109 0 2.048.139 2.816.416.789.256 1.418.63 1.888 1.12.49.49.842 1.077 1.056 1.76.213.683.32 1.45.32 2.304 0 1.088-.043 2.016-.128 2.784-.064.768-.096 1.45-.096 2.048 0 .448.021.95.064 1.504.042.299.074.587.096.864h2.08V34h-5.312l-.416-2.176h-.16c-.427.661-1.035 1.237-1.824 1.728-.79.47-1.856.704-3.2.704-1.6 0-2.87-.427-3.809-1.28-.938-.853-1.407-1.984-1.407-3.392 0-.896.16-1.664.48-2.304a4.164 4.164 0 0 1 1.44-1.6c.64-.427 1.397-.736 2.272-.928.896-.213 1.888-.32 2.976-.32.384 0 .789.021 1.216.064a52.1 52.1 0 0 0 1.568.128c.042-.213.064-.427.064-.64v-.608c0-.81-.235-1.387-.704-1.728-.47-.363-1.163-.544-2.08-.544-1.088 0-2.07.139-2.944.416a18.86 18.86 0 0 0-2.208.832l-.993-3.264Zm5.473 11.744c1.024 0 1.792-.181 2.304-.544.512-.384.885-.79 1.12-1.216v-1.92a10.869 10.869 0 0 0-.96-.128 9.299 9.299 0 0 0-1.376-.096c-.406 0-.811.043-1.216.128a3.426 3.426 0 0 0-1.088.352 1.99 1.99 0 0 0-.768.608 1.502 1.502 0 0 0-.288.928c0 .597.17 1.067.512 1.408.362.32.949.48 1.76.48Zm14.547-9.312h-3.168V18h3.168v-3.648l4.16-1.184V18h8.384v3.52h-8.384v4.576c0 1.643.309 2.837.928 3.584.619.725 1.483 1.088 2.592 1.088.576 0 1.099-.064 1.568-.192.469-.15.885-.33 1.248-.544a6.187 6.187 0 0 0 1.024-.704c.32-.256.608-.49.864-.704l1.92 2.88a6.343 6.343 0 0 1-1.376 1.184c-.533.341-1.12.65-1.76.928-.619.256-1.269.459-1.952.608a9.422 9.422 0 0 1-2.016.224c-2.389 0-4.192-.661-5.408-1.984-1.195-1.344-1.792-3.467-1.792-6.368V21.52ZM193.433 26c0-1.344.202-2.539.608-3.584.405-1.045.981-1.93 1.728-2.656a7.21 7.21 0 0 1 2.656-1.632c1.045-.384 2.208-.576 3.488-.576 1.344 0 2.538.203 3.584.608 1.066.405 1.962.981 2.688 1.728.725.725 1.269 1.61 1.632 2.656.384 1.045.576 2.197.576 3.456 0 1.344-.203 2.539-.608 3.584-.406 1.045-.982 1.93-1.728 2.656a7.538 7.538 0 0 1-2.688 1.664c-1.024.363-2.176.544-3.456.544-1.344 0-2.55-.203-3.616-.608-1.046-.405-1.931-.97-2.656-1.696-.726-.747-1.28-1.643-1.664-2.688-.363-1.045-.544-2.197-.544-3.456Zm4.288 0c0 .704.096 1.355.288 1.952a4.79 4.79 0 0 0 .832 1.568c.362.448.8.8 1.312 1.056.512.235 1.098.352 1.76.352 1.237 0 2.24-.395 3.008-1.184.789-.79 1.184-2.037 1.184-3.744 0-1.472-.363-2.656-1.088-3.552-.726-.917-1.76-1.376-3.104-1.376-.598 0-1.152.096-1.664.288-.512.17-.96.459-1.344.864-.363.405-.651.917-.864 1.536-.214.619-.32 1.365-.32 2.24Zm15.027 4.48h3.968v-8.96h-3.968V18h7.2l.48 2.112h.128a8.452 8.452 0 0 1 2.048-1.76c.768-.47 1.664-.704 2.688-.704 1.28 0 2.283.47 3.008 1.408.747.939 1.12 2.507 1.12 4.704h-3.744c0-.768-.117-1.323-.352-1.664-.213-.363-.565-.544-1.056-.544-.853 0-1.547.213-2.08.64a6.636 6.636 0 0 0-1.312 1.472v6.816h6.944V34h-15.072v-3.52Z" fill="#DFFFFF" fill-rule="nonzero"/></g></svg>